<?xml version="1.0" encoding="utf-8"?>
<!-- Generator: Adobe Illustrator 26.0.3, SVG Export Plug-In . SVG Version: 6.00 Build 0)  -->
<svg version="1.1" id="Слой_1" xmlns="http://www.w3.org/2000/svg" xmlns:xlink="http://www.w3.org/1999/xlink" x="0px" y="0px"
	 viewBox="0 0 102.4 100" style="enable-background:new 0 0 102.4 100;" xml:space="preserve">
<style type="text/css">
	.st0{fill-rule:evenodd;clip-rule:evenodd;fill:#101312;}
</style>
<path class="st0" d="M51.2,0C22.9,0,0,22.9,0,51.2c0,22.6,14.6,41.8,35,48.5c2.6,0.5,3.5-1.1,3.5-2.5c0-1.2,0-4.4-0.1-8.7
	c-14.2,3.1-17.2-6.9-17.2-6.9c-2.4-5.9-5.7-7.5-5.7-7.5c-4.6-3.2,0.3-3.1,0.3-3.1c5.1,0.4,7.9,5.3,7.9,5.3c4.6,7.8,12,5.5,14.9,4.3
	c0.5-3.3,1.7-5.5,3.3-6.9c-11.4-1.3-23.3-5.7-23.3-25.3c0-5.6,1.9-10.1,5.2-13.7c-0.5-1.3-2.3-6.4,0.5-13.5c0,0,4.3-1.3,14,5.2
	c4.1-1.1,8.5-1.7,12.8-1.7s8.7,0.6,12.8,1.7c9.7-6.7,14-5.2,14-5.2c2.8,7.1,1,12.3,0.5,13.5c3.3,3.6,5.2,8.2,5.2,13.7
	c0,19.7-12,24-23.3,25.3c1.8,1.5,3.5,4.7,3.5,9.5c0,6.9-0.1,12.4-0.1,14c0,1.3,0.9,3,3.5,2.5c20.6-7,35.2-26.1,35.2-48.7
	C102.4,22.9,79.4,0,51.2,0z"/>
</svg>
