<?xml version="1.0" encoding="utf-8"?>
<!-- Generator: Adobe Illustrator 26.0.3, SVG Export Plug-In . SVG Version: 6.00 Build 0)  -->
<svg version="1.1" id="Layer_1" xmlns="http://www.w3.org/2000/svg" xmlns:xlink="http://www.w3.org/1999/xlink" x="0px" y="0px"
	 viewBox="0 0 277.9 100" style="enable-background:new 0 0 277.9 100;" xml:space="preserve">
<g>
	<path d="M181.7,39.2c-0.7,1-1.9,2.4-3.7,3.7c-1.3,0.9-2.4,1.4-2.9,1.6c-2.9,1.3-6.5,1.9-10.8,1.9c-7.6,0-12.9-1.5-15.9-4.4
		c-3-3-4.7-6.7-5.1-11.2l13.2-0.9c0.3,2.2,0.9,3.8,1.8,4.9c1.5,1.8,3.5,2.7,6.1,2.7c2,0,3.5-0.5,4.6-1.4c1-0.8,1.6-2,1.6-3.2
		s-0.6-2.4-1.5-3.1c-1-0.9-3.4-1.8-7.1-2.6c-6.1-1.4-10.5-3.2-13-5.5c-2.6-2.2-4-5.3-3.9-8.7c0-2.3,0.7-4.6,2-6.5
		c1.5-2.2,3.6-3.9,6-4.8c2.7-1.1,6.5-1.7,11.1-1.7c5.7,0,10.1,1.1,13.1,3.2s4.8,5.5,5.4,10.2l-13.1,0.8c-0.4-2-1.1-3.5-2.2-4.4
		c-1.1-0.9-2.6-1.4-4.6-1.4c-1.6,0-2.8,0.4-3.6,1s-1.3,1.5-1.2,2.5c0,0.8,0.4,1.5,1,1.9c0.7,0.6,2.2,1.2,4.7,1.7
		c6.1,1.3,10.4,2.6,13.1,4c2.7,1.4,4.6,3,5.7,5c0.3,0.6,0.6,1.2,0.9,1.8c0,0-1.3,3.5-1.6,6.2C181.5,35.5,181.7,39.2,181.7,39.2z
		 M3.2,45.8v-45h23.2c4.3,0,7.6,0.4,9.9,1.1c2.2,0.7,4.2,2.2,5.5,4.1c1.5,2.2,2.2,4.7,2.1,7.3c0.2,4.4-2.1,8.7-6,10.9
		c-1.5,0.9-3.2,1.5-4.9,1.8c1.3,0.4,2.5,1,3.6,1.7c0.9,0.7,1.6,1.5,2.2,2.4c0.8,0.9,1.4,1.8,2,2.8l6.7,13H31.7L24.2,32
		c-1-1.8-1.8-2.9-2.5-3.5c-1-0.7-2.2-1.1-3.4-1.1h-1.2v18.3L3.2,45.8L3.2,45.8z M17.1,19H23c1.3-0.1,2.5-0.3,3.7-0.6
		c0.9-0.2,1.7-0.7,2.3-1.4c1.4-1.8,1.2-4.4-0.5-5.9c-0.9-0.8-2.7-1.2-5.2-1.2h-6.1L17.1,19L17.1,19z M0,84.2l13.2-0.9
		c0.3,2.2,0.9,3.8,1.8,4.9c1.4,1.8,3.5,2.8,6.1,2.8c2,0,3.5-0.5,4.6-1.4c1-0.8,1.6-2,1.6-3.2s-0.6-2.4-1.5-3.1
		c-1-0.9-3.4-1.8-7.1-2.6c-6.1-1.4-10.5-3.2-13-5.5c-2.6-2.2-4-5.3-3.9-8.7c0-2.3,0.7-4.6,2-6.5c1.5-2.2,3.6-3.9,6-4.8
		c2.7-1.2,6.4-1.8,11.1-1.8c5.7,0,10.1,1.1,13.1,3.2c3,2.1,4.8,5.5,5.3,10.2l-13.1,0.8c-0.4-2-1.1-3.5-2.2-4.4
		c-1.1-1-2.7-1.4-4.6-1.4c-1.6,0-2.8,0.4-3.6,1.1c-0.8,0.6-1.3,1.5-1.2,2.5c0,0.8,0.4,1.5,1,1.9c0.7,0.6,2.2,1.2,4.7,1.7
		c6.1,1.3,10.4,2.6,13.1,4s4.6,3,5.7,5c1.2,2,1.8,4.3,1.8,6.6c0,2.8-0.9,5.6-2.4,7.9c-1.7,2.5-4,4.4-6.7,5.5
		c-2.9,1.3-6.5,1.9-10.8,1.9c-7.7,0-13-1.5-16-4.4C2.1,92.5,0.4,88.7,0,84.2L0,84.2z"/>
	<path d="M66.8,80.7L79,84.4c-0.7,3.1-2,6-3.9,8.6c-1.7,2.3-4,4-6.5,5.2c-2.6,1.2-5.9,1.8-10,1.8c-4.9,0-8.9-0.7-12-2.1
		s-5.8-3.9-8-7.5c-2.3-3.6-3.4-8.1-3.4-13.7c0-7.4,2-13.2,5.9-17.2s9.6-6,16.8-6c5.7,0,10.1,1.2,13.4,3.4c3.2,2.3,5.6,5.8,7.2,10.6
		l-12.3,2.7c-0.3-1.1-0.8-2.1-1.4-3c-0.8-1.1-1.7-1.9-2.9-2.5s-2.5-0.9-3.8-0.9c-3.2,0-5.6,1.3-7.2,3.8c-1.3,1.9-1.9,4.8-1.9,8.9
		c0,5,0.8,8.4,2.3,10.3s3.6,2.8,6.4,2.8c2.7,0,4.7-0.8,6-2.2C65.2,85.7,66.2,83.5,66.8,80.7L66.8,80.7z M95.2,54.1h13.9v15.8h15.2
		V54.1h14v45h-14V80.9h-15.2v18.2H95.2V54.1z"/>
	<path d="M136.4,76.6c0-7.3,2.1-13.1,6.1-17.2s9.8-6.1,17.1-6.1c7.5,0,13.2,2,17.3,6S183,69,183,76.2c0,5.3-0.9,9.6-2.7,12.9
		c-1.7,3.3-4.4,6-7.6,7.8c-3.4,1.9-7.5,2.8-12.5,2.8c-5.1,0-9.3-0.8-12.6-2.4c-3.4-1.7-6.2-4.4-8.1-7.6
		C137.4,86.3,136.4,81.9,136.4,76.6z M150.2,76.7c0,4.5,0.9,7.8,2.5,9.8c1.7,2,4,3,6.9,3c3,0,5.3-1,6.9-2.9c1.7-2,2.5-5.4,2.5-10.5
		c0-4.2-0.9-7.3-2.6-9.3s-4-2.9-6.9-2.9c-2.6-0.1-5,1-6.7,3C151,68.8,150.2,72.1,150.2,76.7L150.2,76.7z M224.1,53.5
		c5.2,1.1,9.7,2.1,13.6,5.9c5.7,5.5,6.1,13.2,6.1,16.9c0,5.3-0.9,9.6-2.7,12.9c-1.7,3.3-4.4,6-7.6,7.8c-3.4,1.9-7.5,2.8-12.5,2.8
		c-5.1,0-9.3-0.8-12.6-2.4c-3.4-1.7-6.2-4.4-8.1-7.6c-2.1-3.5-3.1-7.9-3.1-13.2c0-7.3,2.1-13.1,6.1-17.2c0.2-0.2,0.5-0.4,0.6-0.6
		c0,0,5.2,0.2,10.4-1.1C217.7,57,224.1,53.5,224.1,53.5z M211,76.7c0,4.5,0.9,7.8,2.5,9.8c1.7,2,4,3,6.9,3c3,0,5.3-1,6.9-2.9
		c1.7-2,2.5-5.4,2.5-10.5c0-4.2-0.9-7.3-2.6-9.3c-1.7-2-4-2.9-6.9-2.9c-2.6-0.1-5.1,1-6.7,3C211.9,68.8,211,72.1,211,76.7L211,76.7z
		"/>
	<path d="M242.3,54.1h13.9V88h21.7v11.1h-35.6L242.3,54.1L242.3,54.1z"/>
	<path d="M205.7,60c-8.4,0-15.8-3.4-20.5-9.6c-3.7-4.9-5.3-11.3-4.4-17.9c1.1-8.9,6.3-17.4,14.3-23.4c6.9-5.2,15.2-7.9,23.1-7.6
		c8,0.3,14.9,3.7,19.3,9.5c4.4,5.8,5.7,13.3,3.9,21.1c-1.9,7.8-6.7,14.9-13.7,20.1c-4.1,3.1-8.6,5.3-13.4,6.5
		C211.3,59.6,208.5,60,205.7,60z M216.8,3.6c-7.1,0-14.4,2.5-20.6,7.2c-7.5,5.7-12.4,13.7-13.5,22c-0.8,6.2,0.6,11.9,4.1,16.5
		c5.7,7.6,16,10.5,26.9,7.7l0,0c4.5-1.2,8.8-3.2,12.7-6.2c6.6-5,11.2-11.7,12.9-19c1.7-7.2,0.5-14.1-3.5-19.5
		c-4-5.3-10.3-8.4-17.7-8.7C217.7,3.6,217.2,3.6,216.8,3.6z"/>
	<path d="M197.2,27.5l5-3.5l6.2,8.8c1.1,1.4,1.9,2.9,2.5,4.6c0.4,1.3,0.3,2.6-0.3,3.8c-0.7,1.5-1.7,2.8-3.1,3.7
		c-1.7,1.2-3.1,1.8-4.3,2s-2.4,0-3.5-0.5c-1.2-0.6-2.3-1.5-3.1-2.6l4.3-4c0.4,0.6,0.8,1.1,1.3,1.5c0.4,0.3,0.8,0.4,1.2,0.4
		s0.7-0.2,1-0.4c0.5-0.3,0.9-0.9,0.8-1.5c-0.2-0.9-0.5-1.7-1.1-2.4L197.2,27.5L197.2,27.5z M212.3,33.1l4.6-3.6
		c0.5,0.6,1.2,1.1,1.9,1.3c1,0.3,2.1,0.1,2.9-0.6c0.6-0.4,1.1-1,1.3-1.7c0.3-0.9-0.2-1.9-1.1-2.2c-0.2-0.1-0.3-0.1-0.5-0.1
		c-0.6-0.1-1.7,0.2-3.2,0.9c-2.6,1.1-4.6,1.5-6.1,1.3s-2.8-0.9-3.6-2.2c-0.6-0.9-0.9-1.9-1-2.9c0-1.2,0.3-2.3,1-3.3
		c1-1.4,2.1-2.5,3.5-3.4c2.1-1.5,4-2.2,5.6-2.2s3.1,0.8,4.5,2.3l-4.5,3.6c-0.9-1.2-2.6-1.4-3.8-0.5l-0.2,0.2
		c-0.5,0.3-0.9,0.8-1.1,1.3c-0.2,0.4-0.1,0.9,0.2,1.2c0.2,0.3,0.5,0.5,0.9,0.5c0.4,0.1,1.1-0.2,2.1-0.6c2.5-1.1,4.4-1.7,5.7-1.9
		c1.1-0.2,2.3-0.1,3.3,0.4c1,0.4,1.8,1.1,2.3,2c0.7,1,1.1,2.2,1.2,3.5s-0.3,2.6-1,3.7c-0.9,1.4-2.1,2.5-3.4,3.4
		c-2.8,1.9-5,2.7-6.8,2.4C215,35.6,213.4,34.6,212.3,33.1L212.3,33.1z"/>
</g>
</svg>
